<svg xmlns="http://www.w3.org/2000/svg" width="16.808" height="19.339" viewBox="0 0 16.808 19.339">
  <g id="noun_User_415727" transform="translate(-162.007 -196.583)">
    <g id="Group_1" data-name="Group 1" transform="translate(162.007 196.583)">
      <path style="fill: #303859" id="Path_1" data-name="Path 1" d="M32.794,60.452A6.767,6.767,0,0,0,26.156,54.9h-3.38a6.783,6.783,0,0,0-6.687,5.7h0a2.7,2.7,0,0,0,2.665,3.134h11.4a2.714,2.714,0,0,0,2.665-3.183Z" transform="translate(-16.053 -44.394)" fill="gray"/>
      <path style="fill: #303859" id="Path_2" data-name="Path 2" d="M32.016,20.189a5.021,5.021,0,0,0,7.008.1l.049-.049a4.469,4.469,0,0,0,.37-6.095h0a5.026,5.026,0,0,0-7.822.1h0a4.485,4.485,0,0,0,.37,5.922Z" transform="translate(-27.07 -12.323)" fill="gray"/>
    </g>
  </g>
</svg>
